<svg width="19" height="23" viewBox="0 0 19 23" fill="none" xmlns="http://www.w3.org/2000/svg">
<path d="M15.867 11.9761C15.867 12.0771 15.7154 15.0585 19 16.625C18.3936 18.4947 16.2713 22.6383 13.7952 22.6383C12.3803 22.6383 11.5718 21.7287 9.95479 21.7287C8.28723 21.7287 7.37766 22.6383 6.11436 22.6383C3.68883 22.7394 1.36436 18.1915 0.707447 16.3218C0.202128 14.9069 0 13.5426 0 12.2287C0 7.73138 2.98138 5.55851 5.81117 5.50798C7.17553 5.50798 8.89362 6.46808 9.6516 6.46808C10.359 6.46808 12.3298 5.30585 14.1489 5.45744C16.0186 5.60904 17.4335 6.31649 18.3936 7.68085C16.7261 8.74202 15.867 10.1064 15.867 11.9761ZM13.0372 3.68883C12.0266 4.85106 10.8138 5.50798 9.5 5.40691C9.39894 4.04255 9.90426 2.77925 10.8138 1.76861C11.6223 0.859042 13.0372 0.101063 14.25 0C14.25 0.555852 14.4016 2.07181 13.0372 3.68883Z" fill="#1F4B43"/>
</svg>
