<svg width="14" height="12" viewBox="0 0 14 12" fill="none" xmlns="http://www.w3.org/2000/svg">
<path d="M0.5625 5.06264H11.7841L7.48716 0.969892C7.26216 0.755572 7.25344 0.399512 7.46775 0.174512C7.68178 -0.0502067 8.03784 -0.0592067 8.26312 0.155106L13.1704 4.82948C13.3827 5.0421 13.5 5.32448 13.5 5.62514C13.5 5.92551 13.3827 6.20817 13.1605 6.43007L8.26284 11.0949C8.154 11.1986 8.0145 11.2501 7.875 11.2501C7.7265 11.2501 7.578 11.1916 7.46747 11.0755C7.25316 10.8505 7.26188 10.4947 7.48688 10.2804L11.8018 6.18764H0.5625C0.252 6.18764 0 5.93564 0 5.62514C0 5.31464 0.252 5.06264 0.5625 5.06264Z" fill="#1A1A1A"/>
</svg>
