<svg width="27" height="23" viewBox="0 0 27 23" fill="none" xmlns="http://www.w3.org/2000/svg">
<path fill-rule="evenodd" clip-rule="evenodd" d="M26.8572 1.82977C26.9472 1.23727 26.6947 0.643465 26.206 0.294765C25.7172 -0.0527346 25.0735 -0.0965357 24.5422 0.182264C20.291 2.41476 5.41971 10.2223 0.852206 12.6198C0.288506 12.9148 -0.0439939 13.5173 0.00470609 14.151C0.0535061 14.7848 0.473507 15.3298 1.07601 15.536C2.85471 16.1448 5.02851 16.891 8.43721 18.0598L22.1872 5.20847L11.0597 18.9585C14.6947 20.2048 20.3785 22.1535 21.8047 22.6423C22.251 22.796 22.7435 22.7423 23.1472 22.4985C23.551 22.2535 23.8247 21.8423 23.896 21.3748L26.8572 1.82977Z" fill="#1F4B43"/>
</svg>
